<svg width="46" height="46" viewBox="0 0 46 46" fill="none" xmlns="http://www.w3.org/2000/svg">
<path fill-rule="evenodd" clip-rule="evenodd" d="M23.4847 0.5C20.2302 0.5 17.5919 3.13832 17.5919 6.39286V17.1068H6.87723C3.6227 17.1068 0.984375 19.7451 0.984375 22.9996C0.984375 26.2542 3.6227 28.8925 6.87723 28.8925H17.5919L17.5919 39.6071C17.5919 42.8617 20.2302 45.5 23.4847 45.5C26.7393 45.5 29.3776 42.8617 29.3776 39.6071L29.3776 28.8925L40.0915 28.8925C43.3461 28.8925 45.9844 26.2542 45.9844 22.9996C45.9844 19.7451 43.3461 17.1068 40.0915 17.1068L29.3776 17.1068V6.39286C29.3776 3.13832 26.7393 0.5 23.4847 0.5Z" fill="white"/>
</svg>
