<svg width="80" height="80" viewBox="0 0 80 80" fill="none" xmlns="http://www.w3.org/2000/svg">
<g clip-path="url(#clip0_498_14312)">
<path d="M80 40C80 34.4195 76.5659 29.5805 71.4537 26.9659C73.2488 21.5415 72.2341 15.6488 68.2927 11.7073C64.3512 7.76585 58.4585 6.75122 53.0341 8.54634C50.4585 3.43415 45.5805 0 40 0C34.4195 0 29.5805 3.43415 27.0049 8.54634C21.5415 6.75122 15.6488 7.76585 11.7073 11.7073C7.76585 15.6488 6.79024 21.5415 8.58537 26.9659C3.47317 29.5805 0 34.4195 0 40C0 45.5805 3.47317 50.4195 8.58537 53.0341C6.79024 58.4585 7.76585 64.3512 11.7073 68.2927C15.6488 72.2341 21.5415 73.2098 26.9659 71.4537C29.5805 76.5659 34.4195 80 40 80C45.5805 80 50.4585 76.5659 53.0341 71.4537C58.4585 73.2098 64.3512 72.2341 68.2927 68.2927C72.2341 64.3512 73.2488 58.4585 71.4537 53.0341C76.5659 50.4195 80 45.5805 80 40ZM34.3024 56.3902L19.7073 41.7951L25.2098 36.2537L34.0293 45.0732L52.761 24.6634L58.4976 29.9707L34.3024 56.3902Z" fill="black"/>
</g>
<defs>
<clipPath id="clip0_498_14312">
<rect width="80" height="80" fill="white"/>
</clipPath>
</defs>
</svg>
