<svg width="53" height="44" viewBox="0 0 53 44" fill="none" xmlns="http://www.w3.org/2000/svg">
<path fill-rule="evenodd" clip-rule="evenodd" d="M33.9504 0.878906C37.7842 1.56285 41.4514 2.76399 44.881 4.41672C50.8777 13.6403 53.8572 24.0432 52.7571 36.0416C48.1689 39.5751 43.7184 41.7187 39.3428 43.1215C38.2593 41.5916 37.3008 39.9608 36.4716 38.2512C27.8579 42.451 25.2435 42.4611 16.5256 38.2613C15.6963 39.9754 14.7103 41.5872 13.6309 43.1172C9.25957 41.7144 4.81311 39.5706 0.224991 36.0416C-0.712637 25.6915 1.16262 15.1922 8.08019 4.42547C11.5099 2.7684 15.1812 1.56285 19.0192 0.878906C19.4943 1.75569 20.0568 2.93499 20.436 3.87311C24.4366 3.24184 28.4746 3.24184 32.5502 3.87311C32.9294 2.93499 33.4795 1.75569 33.9504 0.878906ZM16.4617 29.4865C14.4336 28.8463 12.9267 26.6634 12.9267 24.0958C12.9267 21.0314 15.027 18.5108 17.6898 18.5108C18.1278 18.5108 18.5517 18.5788 18.9542 18.7062C21.0009 19.3521 22.4943 21.5314 22.456 24.0967C22.4601 27.161 20.3557 29.6773 17.6929 29.6773C17.2676 29.6773 16.8548 29.6109 16.4617 29.4865ZM34.0648 29.4867C32.0363 28.8468 30.5291 26.6637 30.5291 24.0958C30.5291 21.0314 32.6293 18.5108 35.2922 18.5108C35.7301 18.5108 36.154 18.5788 36.5564 18.7061C38.6031 19.352 40.0967 21.5313 40.0584 24.0967C40.0584 27.161 37.958 29.6773 35.2952 29.6773C34.8703 29.6773 34.4577 29.611 34.0648 29.4867Z" fill="white"/>
</svg>
