<svg width="45" height="42" viewBox="0 0 45 42" fill="none" xmlns="http://www.w3.org/2000/svg">
<path fill-rule="evenodd" clip-rule="evenodd" d="M44.6607 5.48289C44.2689 5.03188 43.6389 4.90617 43.1042 5.1631C43.0089 5.20956 42.9136 5.25603 42.8157 5.3025C43.2154 4.56994 43.541 3.78548 43.7766 2.96276C43.9354 2.4161 43.7474 1.82568 43.3054 1.48129C42.8607 1.13962 42.2624 1.11229 41.7939 1.42115C40.428 2.3259 38.9589 2.99008 37.4236 3.40828C35.5892 1.54961 33.1591 0.5 30.6418 0.5C25.12 0.5 20.6252 5.44734 20.6252 11.5263C20.6252 11.7559 20.6306 11.9855 20.6438 12.2123C14.672 11.4142 9.15285 8.04947 5.31196 2.80968C5.04196 2.44068 4.6052 2.25208 4.15785 2.27396C3.70785 2.30949 3.30549 2.57735 3.09106 2.98734C2.22019 4.65467 1.75959 6.5598 1.75959 8.49228C1.75959 10.5888 2.43195 12.4857 3.40609 14.0765C2.95079 14.2951 2.63311 14.768 2.63311 15.3201V15.4459C2.63311 18.8297 3.80049 21.7845 5.76197 23.7825C5.55021 23.8536 5.35696 23.9821 5.2008 24.1542C5.04602 24.3285 4.93761 24.5412 4.88611 24.7717C4.83462 25.0021 4.8418 25.2423 4.90696 25.469C5.86256 28.7845 8.13638 31.3293 10.9635 32.4827C8.08346 34.1665 4.66607 34.8334 1.48429 34.4371C0.862237 34.3414 0.301046 34.7241 0.0866386 35.309C-0.130417 35.8967 0.0707714 36.5636 0.573696 36.9189C4.7852 39.9147 9.65053 41.5 14.6403 41.5C30.9462 41.5 40.6901 26.8302 40.6901 12.6497C40.6901 12.4419 40.6875 12.2369 40.6822 12.032C42.2889 10.6489 43.6707 8.99795 44.801 7.1174C45.1107 6.60083 45.0551 5.93389 44.6607 5.48289Z" fill="white"/>
</svg>
