<svg width="28" height="29" viewBox="0 0 28 29" fill="none" xmlns="http://www.w3.org/2000/svg">
<path d="M0.863395 24.7408C0.151481 25.4527 0.117581 26.724 0.880346 27.4698C1.62616 28.2156 2.89744 28.1987 3.60935 27.4867L13.983 17.0962L24.3735 27.4867C25.1024 28.2156 26.3567 28.2156 27.1025 27.4698C27.8314 26.707 27.8483 25.4697 27.1025 24.7408L16.7289 14.3502L27.1025 3.97663C27.8483 3.24777 27.8483 1.99344 27.1025 1.24763C26.3397 0.518764 25.1024 0.501814 24.3735 1.23068L13.983 11.6212L3.60935 1.23068C2.89744 0.518764 1.60921 0.484864 0.880346 1.24763C0.134531 1.99344 0.151481 3.26472 0.863395 3.97663L11.254 14.3502L0.863395 24.7408Z" fill="#D2D2D2"/>
</svg>
